<svg viewBox="0 0 80 56" fill="none" xmlns="http://www.w3.org/2000/svg">
  <!-- Main peak with organic curves -->
  <path d="M4 48 C8 46 14 42 22 35 C28 30 33 25 38 20 C42 16 45 13 48 11 C50 10 51 9 52 9 C54 11 57 16 62 24 C68 34 76 44 86 50" stroke="#8FB996" stroke-width="4" stroke-linecap="round" stroke-linejoin="round"/>
  <!-- Second overlapping curve -->
  <path d="M76 48 C72 44 66 36 58 28 C52 22 47 17 43 14 C40 12 38 11 36 11 C34 13 30 18 26 26 C20 38 12 48 4 52" stroke="#8FB996" stroke-width="2.5" stroke-linecap="round" opacity="0.4"/>
  <!-- Moon circle -->
  <circle cx="68" cy="14" r="8" stroke="#E8B4B8" stroke-width="3" fill="none"/>
</svg>
