<svg viewBox="0 0 72 48" fill="none" xmlns="http://www.w3.org/2000/svg">
  <!-- Aliento: continuous one-line with two overlapping peaks that cross -->
  <path d="M4 42 C7 40 11 36 15 30 C18 25 20 21 23 18 L26 14 L28 16 C30 19 33 24 36 28 C38 31 40 33 42 34 C40 30 37 24 35 20 L32 14 L30 10 L28 7 L30 5 C31 6 33 9 35 12 L38 17 C41 22 44 28 48 33 C52 37 56 40 62 42 C65 43 68 42 70 40" stroke="#8FB996" stroke-width="3.5" stroke-linecap="round" stroke-linejoin="round"/>
  <circle cx="62" cy="10" r="5.5" stroke="#E8B4B8" stroke-width="2.5" fill="none"/>
</svg>
